<?xml version="1.0" encoding="utf-8"?>
<!-- Generator: Adobe Illustrator 23.1.0, SVG Export Plug-In . SVG Version: 6.00 Build 0)  -->
<svg version="1.1" id="Gear_x5F_Base" xmlns="http://www.w3.org/2000/svg" xmlns:xlink="http://www.w3.org/1999/xlink" x="0px"
	 y="0px" viewBox="0 0 1009 1018" style="enable-background:new 0 0 1009 1018;" xml:space="preserve">
<style type="text/css">
	.st0{fill:#FFCC66;stroke:#663300;stroke-miterlimit:10;}
</style>
<path class="st0" d="M108.79,407.16l-93.18,7.18l-7.16,150.7l94.53,16.4c6.54,35.57,17.76,70.2,33.39,102.9l-68.69,67.28
	l91.38,120.04l84.9-49.32c18.3,15.14,38.17,28.89,59.55,41c10.01,5.67,20.16,10.84,30.41,15.58l-9.56,97.59l147.17,33.22
	l33.67-93.28c35.49-0.06,70.71-4.76,104.77-13.83l55.59,81.18l134.09-69.15l-33.87-92.29c27.03-22.41,51.5-48.59,72.53-78.34
	l93.31,26.05l58.27-139.16l-83.31-47.8c6.79-36.19,8.55-72.78,5.55-108.8l85.92-38.98l-44.81-144.06l-92.01,16.48
	c-18.01-32.14-40.49-62.05-67.14-88.71l39.68-82.84L706.84,54.65l-58.76,70.42c-35.91-13.48-72.87-21.57-109.87-24.58l-22.56-87.84
	L365.99,31.77l0.25,91.68c-35.18,12.67-68.69,30.18-99.45,52.2l-74.26-53.15L90.17,233.34l60.19,71.34
	c-0.34,0.59-0.69,1.17-1.02,1.76C130.98,338.86,117.56,372.72,108.79,407.16z M381.55,814.5c-34.84,16.94-76.28,0.47-92.56-36.79
	c-16.28-37.26-1.24-81.2,33.6-98.14s76.28-0.47,92.56,36.79C431.43,753.62,416.39,797.55,381.55,814.5z M687,533.12
	c-3.1,22.34-10.33,44.48-22.12,65.3c-10.64,18.78-24.1,34.94-39.52,48.31l-33.47-54.01c0.12-0.13,0.26-0.25,0.38-0.38
	c15.44-16.28,25.38-35.78,29.91-56.2L687,533.12z M548.34,621.71l38.97,50.46c-43.67,21.85-95.35,25.96-143.19,9.14l31.1-55.63
	C499.32,632,524.98,630.65,548.34,621.71z M463.02,398.54l-38.73-55.99c45.35-22.06,99.07-25.18,148.11-5.75l-36.44,57.84
	C511.92,388.34,486.34,389.67,463.02,398.54z M386.01,367.47l33.13,60.29c-0.07,0.08-0.15,0.14-0.22,0.22
	c-16.9,17.82-27.21,39.48-31.05,61.99l-66.54,6.61c1.63-27.07,9.29-54.2,23.55-79.39C355.89,397.76,369.91,381.11,386.01,367.47z
	 M390.69,542.77c5.65,19.98,16.56,38.74,32.72,54.06c1.66,1.57,3.35,3.07,5.07,4.53l-25.6,59.37
	c-42.26-28.13-69.47-71.26-78.52-118.21L390.69,542.77z M597.5,826.67c-16.22,36.93-57.63,52.55-92.5,34.9
	c-34.86-17.65-49.98-61.9-33.76-98.82c16.22-36.93,57.63-52.55,92.5-34.9C598.6,745.5,613.72,789.74,597.5,826.67z M719.67,778.59
	c-37.13,10.21-75.33-13.63-85.32-53.27c-9.98-39.63,12.03-80.04,49.16-90.26c37.13-10.21,75.33,13.63,85.32,53.27
	C778.81,727.96,756.8,768.37,719.67,778.59z M815.37,464.2c31.52,23.8,39.21,70.08,17.18,103.38
	c-22.03,33.3-65.44,41.01-96.96,17.21c-31.52-23.8-39.21-70.08-17.18-103.38C740.44,448.11,783.85,440.41,815.37,464.2z
	 M715.36,259.16c38.3-3.18,72.1,27.33,75.48,68.13c3.38,40.81-24.92,76.46-63.23,79.64c-38.3,3.18-72.1-27.33-75.48-68.13
	C648.74,297.99,677.05,262.34,715.36,259.16z M687.62,487.69l-65.48-3.67c-5-22.38-16.48-43.56-34.37-60.53
	c-1.74-1.65-3.53-3.22-5.35-4.75l29.8-60.22C655.67,389.69,682.02,437.21,687.62,487.69z M515.58,169.15
	c27.17-28.66,71.25-28.21,98.47,1c27.21,29.22,27.25,76.14,0.08,104.8c-27.17,28.66-71.25,28.21-98.47-1
	C488.45,244.73,488.41,197.81,515.58,169.15z M309.51,236.28c3.32-40.74,37.07-70.55,75.38-66.6c38.31,3.96,66.68,40.19,63.36,80.93
	c-3.32,40.74-37.07,70.55-75.37,66.6C334.56,313.25,306.2,277.01,309.51,236.28z M210.6,326.11c31.48-23.15,74.9-14.56,96.98,19.19
	c22.08,33.75,14.47,79.88-17.02,103.03c-31.48,23.15-74.9,14.56-96.98-19.19C171.5,395.39,179.12,349.26,210.6,326.11z
	 M172.73,566.24c9.92-39.43,48.08-62.5,85.23-51.53c37.15,10.97,59.23,51.83,49.31,91.26c-9.92,39.43-48.08,62.5-85.23,51.53
	C184.88,646.53,162.81,605.67,172.73,566.24z"/>
</svg>
